<?xml version="1.0" encoding="utf-8"?>
<!-- Generator: Adobe Illustrator 26.2.0, SVG Export Plug-In . SVG Version: 6.00 Build 0)  -->
<svg version="1.1" id="Layer_1" xmlns="http://www.w3.org/2000/svg" xmlns:xlink="http://www.w3.org/1999/xlink" x="0px" y="0px"
	 viewBox="0 0 320 512" style="enable-background:new 0 0 320 512;" xml:space="preserve">
<style type="text/css">
	.st0{opacity:0.4;}
</style>
<path class="st0" d="M0,160c0-35.3,28.6-64,64-64h192c35.3,0,64,28.7,64,64v288c0,35.3-28.7,64-64,64H64c-35.3,0-64-28.7-64-64V160z
	 M256,224H64v160h192V224z"/>
<rect x="64" y="224" width="192" height="160"/>
<path d="M32,32C32,14.3,46.3,0,64,0h192c17.7,0,32,14.3,32,32s-14.3,32-32,32H64C46.3,64,32,49.7,32,32z"/>
</svg>
